<svg xmlns="http://www.w3.org/2000/svg" xmlns:xlink="http://www.w3.org/1999/xlink" width="900" height="550">
  <defs>
    <linearGradient id="a">
      <stop offset="0" stop-color="#d49100"/>
      <stop offset="1" stop-color="#e79e00"/>
    </linearGradient>
    <filter id="c" height="1.5" width="1.5" y="-.25" x="-.25" color-interpolation-filters="sRGB">
      <feGaussianBlur stdDeviation="1" result="result1"/>
      <feGaussianBlur in="result1" stdDeviation="5.831" result="result6"/>
      <feComposite operator="atop" result="result8" in2="result1" in="result6"/>
      <feComposite operator="xor" in="result6" in2="result8" result="fbSourceGraphic"/>
      <feDisplacementMap scale="6.632" in2="result8" result="result95"/>
      <feColorMatrix in="result95" values="0 0 0 -1 0 0 0 0 -1 0 0 0 0 -1 0 0 0 0 2 0" result="fbSourceGraphicAlpha"/>
      <feGaussianBlur in="fbSourceGraphicAlpha" stdDeviation="1" result="result0"/>
      <feSpecularLighting lighting-color="#fff" specularConstant="1.5" surfaceScale="-2" result="result1" specularExponent="35" in="result0">
        <feDistantLight elevation="112" azimuth="122"/>
      </feSpecularLighting>
      <feComposite operator="in" in="result1" in2="fbSourceGraphicAlpha" result="result2"/>
      <feComposite in="fbSourceGraphic" in2="result2" k3="2.14" k2=".664" k1="1.255" result="result4" k4="-.443" operator="arithmetic"/>
      <feComposite operator="atop" in2="result4" result="result91"/>
      <feBlend result="result92" in2="result91" mode="multiply"/>
      <feMerge>
        <feMergeNode in="result4"/>
      </feMerge>
      <feGaussianBlur stdDeviation="1.2" result="result94"/>
      <feComposite in2="SourceGraphic" k3="-.043" k1="1.787" result="result93" k4="-.043" operator="arithmetic"/>
      <feComposite in2="SourceGraphic"/>
    </filter>
    <radialGradient id="b" xlink:href="#a" spreadMethod="reflect" gradientUnits="userSpaceOnUse" cy="959.92" cx="228" gradientTransform="matrix(.61861 -.01855 .00857 .28579 76.416 663.49)" r="301.31"/>
    <radialGradient xlink:href="#a" id="d" gradientUnits="userSpaceOnUse" gradientTransform="matrix(.61861 -.01855 .00857 .28579 76.416 663.49)" spreadMethod="reflect" cx="228" cy="959.92" r="301.31"/>
    <radialGradient xlink:href="#a" id="e" gradientUnits="userSpaceOnUse" gradientTransform="matrix(.61861 -.01855 .00857 .28579 76.416 663.49)" spreadMethod="reflect" cx="228" cy="959.92" r="301.31"/>
    <radialGradient xlink:href="#a" id="f" gradientUnits="userSpaceOnUse" gradientTransform="matrix(.61861 -.01855 .00857 .28579 76.416 663.49)" spreadMethod="reflect" cx="228" cy="959.92" r="301.31"/>
    <radialGradient xlink:href="#a" id="g" gradientUnits="userSpaceOnUse" gradientTransform="matrix(.61861 -.01855 .00857 .28579 76.416 663.49)" spreadMethod="reflect" cx="228" cy="959.92" r="301.31"/>
    <radialGradient xlink:href="#a" id="h" gradientUnits="userSpaceOnUse" gradientTransform="matrix(.61861 -.01855 .00857 .28579 76.416 663.49)" spreadMethod="reflect" cx="228" cy="959.92" r="301.31"/>
    <radialGradient xlink:href="#a" id="i" gradientUnits="userSpaceOnUse" gradientTransform="matrix(.61861 -.01855 .00857 .28579 76.416 663.49)" spreadMethod="reflect" cx="228" cy="959.92" r="301.31"/>
    <radialGradient xlink:href="#a" id="n" gradientUnits="userSpaceOnUse" gradientTransform="matrix(.61861 -.01855 .00857 .28579 76.416 663.49)" spreadMethod="reflect" cx="228" cy="959.92" r="301.31"/>
    <radialGradient xlink:href="#a" id="o" gradientUnits="userSpaceOnUse" gradientTransform="matrix(.61861 -.01855 .00857 .28579 76.416 663.49)" spreadMethod="reflect" cx="228" cy="959.92" r="301.31"/>
    <radialGradient xlink:href="#a" id="p" gradientUnits="userSpaceOnUse" gradientTransform="matrix(.61861 -.01855 .00857 .28579 76.416 663.49)" spreadMethod="reflect" cx="228" cy="959.92" r="301.31"/>
    <radialGradient xlink:href="#a" id="q" gradientUnits="userSpaceOnUse" gradientTransform="matrix(.61861 -.01855 .00857 .28579 76.416 663.49)" spreadMethod="reflect" cx="228" cy="959.92" r="301.31"/>
    <radialGradient xlink:href="#a" id="r" gradientUnits="userSpaceOnUse" gradientTransform="matrix(.61861 -.01855 .00857 .28579 76.416 663.49)" spreadMethod="reflect" cx="228" cy="959.92" r="301.31"/>
    <radialGradient xlink:href="#a" id="s" gradientUnits="userSpaceOnUse" gradientTransform="matrix(.61861 -.01855 .00857 .28579 76.416 663.49)" spreadMethod="reflect" cx="228" cy="959.92" r="301.31"/>
    <radialGradient xlink:href="#a" id="t" gradientUnits="userSpaceOnUse" gradientTransform="matrix(.61861 -.01855 .00857 .28579 76.416 663.49)" spreadMethod="reflect" cx="228" cy="959.92" r="301.31"/>
    <radialGradient xlink:href="#a" id="l" gradientUnits="userSpaceOnUse" gradientTransform="matrix(.61861 -.01855 .00857 .28579 -322.278 210.946)" spreadMethod="reflect" cx="228" cy="959.92" r="301.31"/>
    <radialGradient xlink:href="#a" id="j" gradientUnits="userSpaceOnUse" gradientTransform="matrix(.61861 -.01855 .00857 .28579 -322.278 210.946)" spreadMethod="reflect" cx="228" cy="959.92" r="301.31"/>
    <radialGradient xlink:href="#a" id="k" gradientUnits="userSpaceOnUse" gradientTransform="matrix(.61861 -.01855 .00857 .28579 -322.278 210.946)" spreadMethod="reflect" cx="228" cy="959.92" r="301.31"/>
    <radialGradient xlink:href="#a" id="m" gradientUnits="userSpaceOnUse" gradientTransform="matrix(.61861 -.01855 .00857 .28579 -322.278 210.946)" spreadMethod="reflect" cx="228" cy="959.92" r="301.31"/>
  </defs>
  <g style="text-indent:0;text-transform:none;block-progression:tb" transform="translate(395.14 454.708)" color="#000" fill="url(#b)" filter="url(#c)">
    <path d="M-296.875-287.126q0 12.96-.18 23.22 0 10.08-.72 15.84-.54 3.96-1.62 6.66-.9 2.7-3.6 3.24-1.26.36-2.7.54-1.44.18-2.7.18-1.44 0-1.44 1.08 0 1.44 2.88 1.44 1.98 0 4.86-.18 2.88-.18 5.58-.18 2.88-.18 4.86-.18h7.74q3.42.18 8.64.54 5.22.18 12.6.36 7.56.18 17.82.18 2.7 0 4.32-.18 1.62 0 2.7-.54 1.08-.36 1.62-1.26t1.08-2.7q.36-1.44.72-4.14l.72-5.4q.36-2.88.54-5.04.36-2.34.36-2.88 0-.9-.18-1.8 0-.9-.9-.9-1.08 0-1.62 2.7-.9 5.58-2.7 8.64-1.8 2.88-5.4 4.32-3.6 1.44-8.64 1.8-5.04.18-8.64.18-6.66 0-10.62-.54-3.96-.54-6.3-2.16-2.16-1.62-3.06-4.5-.72-2.88-.9-7.56v-46.62q0-1.26 1.26-1.26 1.08 0 4.5.18 3.6 0 7.56.18 4.14 0 7.92.18 3.96.18 5.76.36 5.22.54 7.02 2.52 1.8 1.8 2.34 3.78.54 1.8.54 3.24.18 1.26.18 2.7 0 1.62 1.26 1.62.9 0 1.08-1.08.18-1.26.18-2.34v-1.8q.18-1.44.18-3.06.18-1.8.18-3.42.18-1.8.36-3.24.36-4.5.9-6.84t.54-3.24q0-1.44-.9-1.44-.72 0-2.7 2.34-1.26 1.44-3.24 1.8-1.98.36-5.22.72-1.62.18-5.94.36h-22.68q-1.08 0-1.08-1.8v-49.68q0-1.8 1.08-1.8h4.14q3.6 0 7.74.18 4.14 0 7.92.18 3.78 0 4.86.18 7.2.9 9.54 2.52 2.34 1.44 3.24 3.6.72 1.62.9 3.6.18 1.98.18 2.88 0 2.34 1.44 2.34.54 0 .72-.54.36-.72.54-1.44.18-.72.18-2.34l.36-3.6q.18-1.98.18-3.6.18-1.62.18-2.34.36-3.78.9-5.58.54-1.98.54-2.88 0-1.62-.72-1.62t-1.26.36q-.54.36-1.26.54-2.52.54-7.74.9-1.62 0-8.1.18h-33.12l-7.38-.36q-3.06-.18-6.48-.18h-6.48q-2.88 0-2.88 1.44 0 1.08 1.44 1.08 1.26 0 3.06.18 1.98 0 3.06.36 4.5.9 5.94 3.24 1.44 2.34 1.8 7.02.18 2.16.18 4.68.18 2.34.18 6.48v59.4z" fill="url(#d)" filter="url(#c)"/>
    <path d="M-187.187-287.126q0 12.96-.18 23.22 0 10.08-.72 15.84-.54 3.96-1.62 6.66-.9 2.7-3.6 3.24-1.26.36-2.7.54-1.44.18-2.7.18-1.44 0-1.44 1.08 0 1.44 2.88 1.44 1.98 0 4.86-.18 2.88-.18 5.58-.18 2.88-.18 4.86-.18h2.34q.72 0 4.86.36 4.14.36 10.08.72 5.76.36 12.42.72 6.84.36 12.6.36 11.52 0 20.34-2.16 8.82-1.98 15.48-5.04 6.66-3.24 11.16-6.84 4.68-3.6 7.56-6.66 3.78-3.96 7.2-9.18 3.6-5.22 6.3-11.52 2.7-6.48 4.32-14.04 1.62-7.56 1.62-16.02 0-8.1-1.44-14.94t-3.96-12.42q-2.34-5.76-5.58-10.26-3.06-4.5-6.48-8.1-8.1-8.28-17.82-12.42-9.72-4.32-19.62-6.12-9.9-1.8-19.08-1.8-9-.18-15.66-.18-4.14 0-8.1.18-3.96 0-7.38.18-3.24 0-5.76.18h-5.58q-1.98-.18-5.04-.18-2.88-.18-6.3-.18-3.42-.18-6.48-.18-2.88 0-2.88 1.44 0 1.08 1.44 1.08 1.26 0 3.06.18 1.98 0 3.06.36 4.5.9 5.94 3.24 1.44 2.34 1.8 7.02.18 2.16.18 4.68.18 2.34.18 6.48v59.4zm15.12-34.56v-31.68q.18-4.32.18-6.66 0-2.7 2.16-3.6.54-.18 1.8-.36 1.44-.36 3.24-.54 1.8-.18 3.42-.18 1.8-.18 3.24-.18 8.1 0 15.84.72 7.92.54 15.3 2.7 7.38 2.16 14.4 6.3 7.02 3.96 13.32 10.62 2.7 2.88 5.76 7.2 3.06 4.14 5.58 9.9 2.7 5.58 4.32 12.6t1.62 15.66q0 6.3-.9 12.42t-2.88 11.88q-1.8 5.58-4.5 10.44-2.7 4.86-6.12 8.28-8.1 8.1-19.26 12.42-10.98 4.32-23.58 4.32-7.92 0-13.5-.54-5.4-.72-9-1.8-3.42-1.08-5.4-2.34-1.8-1.26-2.7-2.52-.54-.72-.9-2.34-.36-1.62-.54-3.6l-.36-3.96q-.18-2.16-.18-3.78 0-1.26-.18-4.86 0-3.6-.18-8.82v-47.7z" fill="url(#e)" filter="url(#c)"/>
    <path d="M-6.833-318.806v-34.2q.18-2.52.36-4.68.36-4.68 1.62-7.02 1.44-2.52 5.04-3.24 1.62-.36 2.52-.36 1.08-.18 1.98-.18 1.44 0 1.44-1.08 0-1.44-2.88-1.44-1.98 0-4.86.18-2.88 0-5.58.18-2.7 0-4.86.18h-4.86q-1.98-.18-4.68-.18-2.7-.18-5.76-.18-3.06-.18-5.22-.18-2.88 0-2.88 1.44 0 1.08 1.44 1.08.9 0 2.52.18t3.06.54q5.58 1.26 6.12 10.08.18 2.16.18 4.68.18 2.34.18 6.48v59.4q0 12.96-.18 23.22 0 10.08-.72 15.84-.54 3.96-1.62 6.66-.9 2.7-3.6 3.24-1.26.36-2.7.54-1.44.18-2.7.18-1.44 0-1.44 1.08 0 1.44 2.88 1.44 1.98 0 4.86-.18 2.88 0 5.58-.18 2.7 0 4.68-.18h4.86q2.16.18 5.22.18 3.24.18 7.02.18 3.78.18 7.56.18 2.88 0 2.88-1.44 0-1.08-1.44-1.08-1.26 0-3.78-.18-2.34-.18-4.32-.54-4.14-.54-5.4-3.24-1.26-2.7-1.62-6.66-.72-5.76-.9-15.84v-54.9z" fill="url(#f)" filter="url(#c)"/>
    <path d="M95.489-363.266l22.68.36q6.48.18 10.62 1.08 4.32.72 6.66 1.98 2.52 1.26 3.6 3.06t1.26 3.78l.18 1.98q.18 1.98.36 2.52.36.54 1.08.54 1.26 0 1.26-2.34v-3.06q.18-2.52.18-5.58.18-3.06.18-6.12.18-3.06.18-5.04 0-.9-.18-1.44 0-.72-.72-.72-.54 0-1.8.36-1.26.18-3.24.54-2.16.36-5.4.72-3.06.18-7.38.18h-67.5q-1.62 0-5.94-.18-4.32-.36-8.28-.72-3.6-.36-5.4-1.26-1.62-.9-2.52-.9-.54 0-1.08 1.26-.36 1.26-.72 2.16-.18.54-.9 3.24-.54 2.7-1.26 5.94t-1.26 6.12q-.54 2.7-.54 3.42 0 1.62.9 1.62 1.08 0 1.8-1.8.36-.9.9-1.98.72-1.26 2.16-3.6 1.08-1.62 2.52-2.7t3.6-1.62q2.16-.72 5.04-1.08 3.06-.36 7.2-.36l26.64-.36v76.14q0 12.96-.18 23.22 0 10.08-.72 15.84-.54 3.96-1.62 6.66-.9 2.7-3.6 3.24-1.26.36-2.7.54-1.44.18-2.7.18-1.44 0-1.44 1.08 0 1.44 2.88 1.44 1.98 0 4.86-.18 2.88 0 5.58-.18 2.7 0 4.68-.18h4.86q2.16.18 5.22.18 3.24.18 7.02.18 3.78.18 7.56.18 2.88 0 2.88-1.44 0-1.08-1.44-1.08-1.26 0-3.78-.18-2.34-.18-4.32-.54-4.14-.54-5.4-3.24-1.26-2.7-1.62-6.66-.72-5.76-.9-15.84v-99.36z" fill="url(#g)" filter="url(#c)"/>
    <path d="M155.984-303.146q0 12.24 3.96 24.84 3.96 12.42 12.42 22.68t21.6 16.74q13.32 6.48 31.86 6.48 16.2 0 29.52-5.76 13.32-5.94 22.68-15.84 9.36-10.08 14.4-23.4 5.22-13.5 5.22-28.62 0-15.66-5.4-28.08-5.4-12.6-14.94-21.24-9.36-8.82-22.32-13.5t-28.08-4.68q-12.42 0-22.5 3.24-10.08 3.06-18 8.46t-13.68 12.6q-5.58 7.02-9.36 14.94-3.78 7.74-5.58 15.84-1.8 8.1-1.8 15.3zm17.1-5.04q0-14.76 3.96-25.74 3.96-11.16 10.98-18.54 7.02-7.56 16.56-11.16 9.72-3.78 21.06-3.78 10.62 0 20.52 4.32t17.46 12.78q7.56 8.28 12.06 20.7 4.68 12.42 4.68 28.62 0 19.62-5.58 31.86-5.4 12.06-13.32 18.72-7.74 6.66-16.2 9-8.46 2.16-14.58 2.16-12.24 0-22.68-4.86t-18.36-13.86q-7.74-9-12.24-21.78-4.32-12.78-4.32-28.44z" fill="url(#h)" filter="url(#c)"/>
    <path d="M341.211-287.126q0 12.96-.18 23.22 0 10.08-.72 15.84-.54 3.96-1.62 6.66-.9 2.7-3.6 3.24-1.26.36-2.7.54-1.44.18-2.7.18-1.44 0-1.44 1.08 0 1.44 2.88 1.44 1.98 0 4.86-.18 2.88 0 5.58-.18 2.7 0 4.5-.18h4.32q2.16.18 5.22.18 3.24.18 7.02.18 3.78.18 7.56.18 2.88 0 2.88-1.44 0-1.08-1.44-1.08-1.26 0-3.78-.18-2.34-.18-4.32-.54-4.14-.54-5.4-3.24-1.26-2.7-1.62-6.66-.72-5.76-.9-15.84v-27.54q0-1.44 1.26-1.44l22.14.36q1.26 0 2.34 1.08 1.26 1.8 3.42 4.86 2.34 2.88 4.86 6.48 2.7 3.6 5.58 7.56 2.88 3.96 5.76 7.74 7.74 10.26 13.14 16.92 5.4 6.48 11.16 9.54 3.42 1.98 7.56 2.7 4.14.72 11.7.72h12.78q2.52 0 3.42-.36.9-.18.9-1.08 0-1.08-1.62-1.08h-2.7q-1.8-.18-4.32-.54-3.42-.54-9-2.88t-12.96-10.08q-7.92-8.46-17.1-20.16l-20.34-25.92q12.06-11.16 16.92-21.24 4.86-10.26 4.86-20.34 0-4.68-1.44-8.64-1.26-3.96-3.24-7.02-1.8-3.06-3.96-5.22-2.16-2.34-3.78-3.6-7.2-5.22-15.84-6.48-8.46-1.44-17.1-1.44-2.16 0-5.4.18-3.24 0-6.66.18-3.24 0-5.94.18h-5.76q-1.98-.18-5.04-.18-2.88-.18-6.3-.18-3.42-.18-6.48-.18-2.88 0-2.88 1.44 0 1.08 1.44 1.08 1.26 0 3.06.18 1.98 0 3.06.36 4.5.9 5.94 3.24 1.44 2.34 1.8 7.02.18 2.16.18 4.68.18 2.34.18 6.48v59.4zm14.4-74.88q0-1.62 1.44-2.16 1.44-.36 4.68-.72 3.24-.36 7.38-.36 14.58 0 22.86 9.54t8.28 26.46q0 10.26-3.24 17.46-3.06 7.02-7.74 10.26-3.06 2.16-6.66 2.88-3.6.54-6.84.54-5.94 0-11.52-.72-5.4-.9-7.38-2.16-1.26-.72-1.26-2.16v-58.86z" fill="url(#i)" filter="url(#c)"/>
    <path d="M30.852-178.315q0 2.87 1.89 4.97 1.89 2.03 5.25 2.03 2.1 0 4.34-.7 2.31-.7 4.27-2.17 1.96-1.54 3.15-3.85 1.19-2.38 1.19-5.46 0-2.87-1.89-4.9-1.89-2.1-5.25-2.1-2.03 0-4.34.84-2.24.77-4.2 2.38-1.96 1.54-3.22 3.85-1.19 2.24-1.19 5.11zm2.94 1.68q0-1.75.84-3.92.91-2.17 2.38-4.13 1.54-2.03 3.36-3.29 1.82-1.26 3.64-1.26 2.24 0 3.08 1.12.91 1.05.91 2.94 0 1.68-.91 3.85-.84 2.17-2.31 4.2-1.47 2.03-3.36 3.29-1.82 1.26-3.64 1.26-2.24 0-3.15-1.05-.84-1.12-.84-3.01z" fill="url(#j)" filter="url(#c)"/>
    <path d="M57.521-183.985q-.35.98-.98 2.87-1.4 4.27-2.66 7.77-1.26 3.43-2.94 7.07t-3.85 6.79q-2.17 3.15-4.69 5.04l-.07.07q-.56.42-.56.7 0 .28.49.28.91 0 2.52-1.26 1.61-1.26 3.36-3.29 1.75-1.96 3.43-4.2 1.61-2.24 2.66-4.13 1.89-3.43 3.22-6.72 1.33-3.29 3.01-8.12 1.05-3.01 1.4-3.85.42-.14 1.26-.63 1.4-.84 1.96-.84.35 0 .63.28.42.42 1.19.42.63 0 1.12-.49.49-.56.49-1.19 0-2.52-2.52-2.52-.7 0-1.68.49-.91.49-1.26.98l-.14-.14q.35-.84 1.61-4.27 1.33-3.78 2.38-6.51 1.12-2.73 2.52-5.46 1.4-2.8 2.94-4.55 1.61-1.82 3.15-1.82 1.33 0 1.82.56.49.49.91 1.47.28.84.63 1.26.35.35 1.12.35.49 0 .91-.49.49-.49.49-1.05 0-1.61-1.54-2.45-1.47-.91-3.22-.91-3.15 0-6.16 3.08-3.01 3.01-5.46 7.56t-4.2 8.96q-1.75 4.41-3.29 8.89z" fill="url(#k)" filter="url(#c)"/>
    <path d="M301.647-178.995c-32.252 39.164-141.296-39.163-175.853 3.072 34.557-42.235 143.6 40.331 175.853 1.167 2.496-3.24 2.777-7.48 0-4.239z" fill="url(#l)" filter="url(#c)"/>
    <path d="M-207.91-179.288c32.252 39.164 141.296-39.164 175.853 3.072-34.557-42.236-143.601 40.33-175.854 1.167-2.495-3.24-2.776-7.48 0-4.239z" fill="url(#m)" filter="url(#c)"/>
    <path d="M-294.02-50.627q0 12.96-.18 23.22 0 10.08-.72 15.84-.54 3.96-1.62 6.66-.9 2.7-3.6 3.24-1.26.36-2.7.54-1.44.18-2.7.18-1.44 0-1.44 1.08 0 1.44 2.88 1.44 1.98 0 4.86-.18 2.88-.18 5.58-.18 2.88-.18 4.86-.18h7.74q3.42.18 8.64.54 5.22.18 12.6.36 7.56.18 17.82.18 2.7 0 4.32-.18 1.62 0 2.7-.54 1.08-.36 1.62-1.26t1.08-2.7q.36-1.44.72-4.14l.72-5.4q.36-2.88.54-5.04.36-2.34.36-2.88 0-.9-.18-1.8 0-.9-.9-.9-1.08 0-1.62 2.7-.9 5.58-2.7 8.64-1.8 2.88-5.4 4.32-3.6 1.44-8.64 1.8-5.04.18-8.64.18-6.66 0-10.62-.54-3.96-.54-6.3-2.16-2.16-1.62-3.06-4.5-.72-2.88-.9-7.56v-46.62q0-1.26 1.26-1.26 1.08 0 4.5.18 3.6 0 7.56.18 4.14 0 7.92.18 3.96.18 5.76.36 5.22.54 7.02 2.52 1.8 1.8 2.34 3.78.54 1.8.54 3.24.18 1.26.18 2.7 0 1.62 1.26 1.62.9 0 1.08-1.08.18-1.26.18-2.34v-1.8q.18-1.44.18-3.06.18-1.8.18-3.42.18-1.8.36-3.24.36-4.5.9-6.84t.54-3.24q0-1.44-.9-1.44-.72 0-2.7 2.34-1.26 1.44-3.24 1.8-1.98.36-5.22.72-1.62.18-5.94.36h-22.68q-1.08 0-1.08-1.8v-49.68q0-1.8 1.08-1.8h4.14q3.6 0 7.74.18 4.14 0 7.92.18 3.78 0 4.86.18 7.2.9 9.54 2.52 2.34 1.44 3.24 3.6.72 1.62.9 3.6.18 1.98.18 2.88 0 2.34 1.44 2.34.54 0 .72-.54.36-.72.54-1.44.18-.72.18-2.34l.36-3.6q.18-1.98.18-3.6.18-1.62.18-2.34.36-3.78.9-5.58.54-1.98.54-2.88 0-1.62-.72-1.62t-1.26.36q-.54.36-1.26.54-2.52.54-7.74.9-1.62 0-8.1.18h-33.12l-7.38-.36q-3.06-.18-6.48-.18h-6.48q-2.88 0-2.88 1.44 0 1.08 1.44 1.08 1.26 0 3.06.18 1.98 0 3.06.36 4.5.9 5.94 3.24 1.44 2.34 1.8 7.02.18 2.16.18 4.68.18 2.34.18 6.48v59.4z" fill="url(#n)" filter="url(#c)"/>
    <path d="M-81.663-129.876q-.54-4.14-2.34-4.14-1.26 0-2.52 2.52l-46.08 94.86-47.88-95.04q-1.26-2.34-3.24-2.34-1.44 0-1.8 2.7l-11.52 99.9q-.54 4.32-1.44 7.92-.72 3.6-4.68 4.32-1.8.36-2.88.54h-1.8q-1.62 0-1.62 1.08 0 1.44 2.7 1.44 1.62 0 3.6-.18 2.16 0 4.14-.18 1.98 0 3.42-.18h4.14q1.62.18 3.6.18 2.16.18 4.5.18 2.52.18 4.68.18 2.88 0 2.88-1.44 0-1.08-1.26-1.08-.9 0-2.52-.18t-3.6-.72q-3.78-.9-3.78-4.32v-3.96q0-1.98.18-3.78l6.12-69.12h.72q1.08 2.34 3.6 7.92 2.7 5.4 5.76 11.7 3.06 6.3 5.94 12.42l4.86 9.72q1.44 3.06 3.96 7.92 2.52 4.86 5.22 10.08 2.7 5.22 5.22 9.9 2.52 4.68 4.14 7.56 2.34 4.14 3.24 5.58 1.08 1.44 2.16 1.44t1.98-1.44q1.08-1.62 3.6-6.66l38.16-78.12h.36l7.56 77.4q.36 2.16.18 3.78-.18 1.44-.9 1.62-1.08.36-1.08 1.26 0 .54.72.9.9.36 3.78.72 2.16.18 6.12.36t8.1.18q4.32.18 7.74.18 3.6.18 5.04.18t2.34-.36q.9-.36.9-1.08 0-1.08-1.26-1.08t-4.14-.18q-2.7-.18-6.12-1.26-2.52-.72-3.96-2.52-1.44-1.98-2.34-4.14-.9-2.34-1.26-4.68-.36-2.52-.54-4.5l-10.8-93.96z" fill="url(#o)" filter="url(#c)"/>
    <path d="M-23.194-60.576q0 11.16-.18 19.8 0 8.64-.72 13.32-.54 3.42-1.26 5.58-.54 1.98-2.88 2.52-1.08.36-2.52.54-1.26.18-2.34.18-1.26 0-1.26 1.26t2.52 1.26q1.8 0 4.32-.18 2.7 0 5.04-.18 2.52 0 4.32-.18h4.14q1.98.18 4.68.18 2.88.18 6.3.18 3.42.18 6.66.18 2.52 0 2.52-1.26t-1.26-1.26q-1.08 0-3.24-.18t-3.78-.54q-3.6-.54-4.86-2.52-1.08-2.16-1.44-5.58-.54-4.68-.72-13.32v-82.08q0-2.7 1.26-2.88 1.26-.36 3.96-.72 2.88-.36 4.86-.36h3.6q2.52 0 5.4.72 2.88.54 6.12 2.16 3.24 1.44 6.3 4.5 3.24 3.06 5.04 6.48 1.8 3.24 2.7 6.48.9 3.06 1.08 5.76.18 2.7.18 4.5 0 5.22-2.16 9.72-2.16 4.5-6.12 7.92-3.96 3.24-9.36 5.22-5.22 1.8-11.7 1.8-2.52 0-3.42.36-.72.36-.72 1.26 0 .54.54 1.08.54.36 1.08.36.72.18 2.16.18h2.34q9.18 0 16.56-2.52 7.56-2.7 12.96-7.38 5.4-4.86 8.28-11.52 3.06-6.84 3.06-15.12 0-6.3-2.7-10.98-2.52-4.86-5.22-7.38-1.08-.9-3.06-2.34t-5.58-2.88q-3.42-1.44-8.82-2.34-5.22-1.08-12.78-1.08-2.7 0-6.12.18h-6.48q-3.24 0-5.94.18h-6.48q-1.8-.18-4.5-.18h-5.58q-3.06-.18-5.76-.18-2.52 0-2.52 1.26t1.26 1.26q1.08 0 2.7.18 1.8 0 2.7.18 3.96.54 5.04 2.52t1.44 5.94q.18 1.8.18 3.96.18 1.98.18 5.58v50.4z" fill="url(#p)" filter="url(#c)"/>
    <path d="M96.675-87.576v-28.98q.18-2.16.18-3.96.36-4.14 1.26-5.94 1.08-1.8 4.32-2.52 1.44-.36 2.16-.36h1.8q1.26 0 1.26-1.26t-2.52-1.26q-1.8 0-4.5.18h-5.04q-2.34 0-4.32.18h-4.14q-1.8-.18-4.32-.18h-5.04q-2.52-.18-4.5-.18-2.52 0-2.52 1.26t1.26 1.26q.9 0 2.16.18 1.26 0 2.7.36 2.52.54 3.6 2.52 1.08 1.8 1.44 5.76.18 1.8.18 3.96.18 1.98.18 5.58v50.4q0 11.16-.18 19.8t-.72 13.32q-.36 3.42-1.08 5.58-.72 1.98-3.06 2.52-1.08.36-2.52.54-1.26.18-2.34.18-1.26 0-1.26 1.26t2.52 1.26q1.8 0 4.32-.18 2.52 0 4.86-.18 2.52 0 4.32-.18h4.14q1.98.18 4.86.18 2.88.18 6.3.18 3.42.18 6.66.18 2.52 0 2.52-1.26t-1.26-1.26q-1.08 0-3.24-.18t-3.96-.54q-3.6-.54-4.5-2.52-.9-2.16-1.26-5.58-.54-4.68-.72-13.32v-46.8z" fill="url(#q)" filter="url(#c)"/>
    <path d="M152.236-60.576q0 11.16-.18 19.8 0 8.64-.72 13.32-.54 3.42-1.26 5.58-.54 1.98-2.88 2.52-1.08.36-2.52.54-1.26.18-2.34.18-1.26 0-1.26 1.26t2.52 1.26q1.8 0 4.5-.18 2.7 0 5.04-.18 2.52 0 4.32-.18h3.78q1.98.18 4.68.18 2.88.18 6.12.18 3.42.18 6.66.18 2.52 0 2.52-1.26t-1.26-1.26q-1.08 0-3.24-.18t-3.78-.54q-3.6-.54-4.86-2.52-1.08-2.16-1.44-5.58-.54-4.68-.72-13.14v-23.4q0-1.26 1.08-1.26l20.16.36q1.26 0 2.16.9 1.26 1.62 3.06 4.14 1.98 2.52 4.14 5.58 2.34 2.88 4.86 6.3 2.52 3.24 5.04 6.3 6.84 8.64 11.52 14.22 4.86 5.58 10.08 8.28 3.06 1.62 6.48 2.34 3.6.72 10.44.72h9.9q2.16 0 2.88-.36.9-.18.9-.9 0-1.26-1.44-1.26h-1.98q-1.26-.18-3.6-.54-3.06-.36-7.2-2.16-4.14-1.98-10.44-8.46-6.84-7.2-15.12-17.28-8.28-10.08-18-22.32 10.98-9.36 15.12-17.82 4.32-8.64 4.32-17.1 0-3.96-1.26-7.2-1.08-3.42-2.88-6.12-1.62-2.7-3.6-4.5-1.8-1.98-3.24-3.06-6.3-4.32-14.22-5.4-7.74-1.26-15.3-1.26-1.8 0-5.04.18h-6.12q-3.06 0-5.58.18h-5.4q-1.98-.18-4.68-.18h-5.94q-3.06-.18-5.76-.18-2.52 0-2.52 1.26t1.26 1.26q1.08 0 2.7.18 1.8 0 2.7.18 3.96.54 5.04 2.52t1.44 5.94q.18 1.8.18 3.96.18 1.98.18 5.58v50.4zm13.68-63.18q0-1.08 1.26-1.8 1.26-.36 4.5-.54 3.24-.36 6.84-.36 12.78 0 19.98 7.92 7.38 7.74 7.38 22.14 0 8.82-2.7 14.76-2.7 5.94-6.84 8.64-2.88 1.98-5.94 2.34-3.06.36-5.94.36-2.7 0-5.4-.18t-5.22-.54q-2.34-.36-4.14-.72-1.8-.36-2.7-.9-1.08-.72-1.08-1.98v-49.14z" fill="url(#r)" filter="url(#c)"/>
    <path d="M273.173-60.576q0 11.16-.18 19.8 0 8.64-.72 13.32-.54 3.42-1.26 5.58-.54 2.16-2.88 2.52-1.08.18-2.52.54-1.26.18-2.34.18-1.26 0-1.26 1.26t2.52 1.26q1.98 0 4.32-.18 2.52 0 4.86-.18 2.52-.18 4.5-.18h7.2q3.24 0 8.28.36 4.86.18 11.7.36 6.84.18 15.84.18 2.34 0 3.78-.18 1.62 0 2.52-.36.9-.36 1.44-1.08.72-.9 1.08-2.34.36-1.26.72-3.42l.72-4.68q.36-2.52.54-4.32.18-1.98.18-2.34 0-.9-.18-1.62-.18-.72-.9-.72-1.08 0-1.62 2.34-.72 4.68-2.52 7.02-1.62 2.16-4.68 3.6-3.06 1.26-7.92 1.44-4.86.18-7.92.18-5.94 0-9.54-.36-3.6-.54-5.76-1.8-1.98-1.44-2.7-3.78-.72-2.52-.9-6.3v-38.88q0-1.08 1.08-1.08h4.32q3.24 0 7.02.18 3.78 0 7.38.18t5.22.36q4.68.54 6.12 1.8 1.62 1.26 1.98 2.88.54 1.44.54 2.7.18 1.26.18 2.34 0 1.44 1.08 1.44.9 0 1.08-.9.36-1.08.36-1.98 0-.9.18-4.14.18-3.42.54-5.76.36-3.78.72-5.76.54-1.98.54-2.7 0-1.26-.9-1.26-.36 0-2.34 1.98-1.26 1.26-3.06 1.62-1.8.18-4.68.54-1.44.18-5.4.36h-21.06q-.9 0-.9-1.62v-41.58q0-1.62.9-1.62h3.96q3.24 0 7.02.18 3.96 0 7.38.18 3.42 0 4.5.18 3.24.36 5.22.9 1.98.36 3.24.9 1.26.54 1.8 1.26.72.72 1.08 1.62.54 1.44.72 3.06.18 1.44.18 2.34 0 1.98 1.26 1.98.54 0 .9-.54t.54-1.08q.18-.72.18-2.16.18-1.44.36-3.06t.18-2.88q.18-1.44.18-1.98.36-3.24.72-4.68.54-1.62.54-2.52 0-1.44-.72-1.44-.54 0-1.08.36l-1.08.36q-.9.18-2.88.54-1.98.18-4.32.36h-40.14q-1.8-.18-4.5-.18h-5.76q-3.06-.18-5.76-.18-2.52 0-2.52 1.26t1.26 1.26q1.08 0 2.7.18 1.8 0 2.7.18 3.96.54 5.04 2.52t1.44 5.94q.18 1.8.18 3.96.18 1.98.18 5.58v50.4z" fill="url(#s)" filter="url(#c)"/>
    <path d="M391.074 7.153q7.38 0 14.4-1.8 7.02-1.62 12.78-5.76 4.68-3.24 7.56-7.2 3.06-4.14 4.68-8.28 1.8-4.14 2.34-7.92.72-3.78.72-6.48 0-5.4-1.08-10.26-1.08-5.04-4.14-9.9-2.88-5.04-8.1-10.44-5.04-5.4-12.96-11.7l-5.04-3.96q-6.48-5.04-10.8-9-4.14-3.96-6.66-7.38-2.52-3.42-3.6-6.66-.9-3.42-.9-7.2 0-9.9 6.3-15.3 6.48-5.58 15.84-5.58 6.12 0 10.26 1.26 4.14 1.08 6.66 2.7 2.7 1.62 3.96 3.24 1.26 1.62 1.62 2.34.9 1.44 1.44 4.5.72 2.88.9 4.5.18 1.08.36 1.8.18.54 1.08.54 1.26 0 1.26-4.14 0-9.18.36-13.68.36-4.68.36-5.4 0-1.26-1.8-1.26-1.08 0-2.52-.18-1.26-.18-3.78-.72-3.42-.9-7.56-1.26-3.96-.54-9.18-.54-8.64 0-15.48 2.34t-11.7 6.66q-4.86 4.32-7.56 10.26-2.52 5.94-2.52 13.14 0 4.68.9 9.18 1.08 4.32 3.6 9.18 2.7 4.68 7.2 9.72 4.5 5.04 11.7 10.98l8.1 6.66q5.76 4.86 9.72 8.82 3.96 3.78 6.3 7.56 2.52 3.6 3.6 7.56 1.08 3.78 1.08 8.46 0 4.32-1.62 8.64t-4.86 7.74q-3.06 3.24-7.92 5.4-4.86 2.16-11.34 2.16-4.5 0-8.82-.9-4.32-1.08-8.1-3.24-3.6-2.16-6.12-5.58-2.52-3.6-3.6-8.64-.36-1.98-.54-3.6v-3.06q0-1.98-1.26-1.98t-1.44 2.88q-.18 2.16-.54 7.2-.36 5.04-.36 11.88 0 3.6.36 4.86.36 1.08 2.34 1.98 5.58 2.7 11.7 3.78 6.12 1.08 12.42 1.08z" fill="url(#t)" filter="url(#c)"/>
  </g>
</svg>
